grf
version=1
nRows=23
nColumns=46
inDegrees=yes
endheader
time	ground_force_1_vx	ground_force_1_vy	ground_force_1_vz	ground_force_1_px	ground_force_1_py	ground_force_1_pz	ground_moment_1_mx	ground_moment_1_my	ground_moment_1_mz	ground_force_2_vx	ground_force_2_vy	ground_force_2_vz	ground_force_2_px	ground_force_2_py	ground_force_2_pz	ground_moment_2_mx	ground_moment_2_my	ground_moment_2_mz	ground_force_3_vx	ground_force_3_vy	ground_force_3_vz	ground_force_3_px	ground_force_3_py	ground_force_3_pz	ground_moment_3_mx	ground_moment_3_my	ground_moment_3_mz	ground_force_4_vx	ground_force_4_vy	ground_force_4_vz	ground_force_4_px	ground_force_4_py	ground_force_4_pz	ground_moment_4_mx	ground_moment_4_my	ground_moment_4_mz	ground_force_5_vx	ground_force_5_vy	ground_force_5_vz	ground_force_5_px	ground_force_5_py	ground_force_5_pz	ground_moment_5_mx	ground_moment_5_my	ground_moment_5_mz
5.960000	0.000000	0.000000	0.000000	0.000000	0.000000	0.000000	0.000000	0.000000	0.000000	0.000000	0.000000	0.000000	0.000000	0.000000	0.000000	0.000000	0.000000	0.000000	0.000000	0.000000	0.000000	0.000000	0.000000	0.000000	0.000000	0.000000	0.000000	11.419297	576.362540	-81.596706	0.194624	0.000000	-1.073125	-0.000000	6.004111	0.000000	-10.937539	465.927282	76.468065	0.220553	0.000000	-1.400907	-0.000000	-6.450850	-0.000000
5.960500	0.000000	0.000000	0.000000	0.000000	0.000000	0.000000	0.000000	0.000000	0.000000	0.000000	0.000000	0.000000	0.000000	0.000000	0.000000	0.000000	0.000000	0.000000	0.000000	0.000000	0.000000	0.000000	0.000000	0.000000	0.000000	0.000000	0.000000	11.419216	576.297013	-81.598370	0.194641	0.000000	-1.073120	-0.000000	6.002494	0.000000	-10.948600	466.025708	76.470157	0.220562	0.000000	-1.400901	-0.000000	-6.450369	-0.000000
5.961000	0.000000	0.000000	0.000000	0.000000	0.000000	0.000000	0.000000	0.000000	0.000000	0.000000	0.000000	0.000000	0.000000	0.000000	0.000000	0.000000	0.000000	0.000000	0.000000	0.000000	0.000000	0.000000	0.000000	0.000000	0.000000	0.000000	0.000000	11.417788	576.230132	-81.600235	0.194658	0.000000	-1.073114	-0.000000	6.000837	0.000000	-10.959562	466.126237	76.472853	0.220570	0.000000	-1.400896	-0.000000	-6.449873	-0.000000
5.961500	0.000000	0.000000	0.000000	0.000000	0.000000	0.000000	0.000000	0.000000	0.000000	0.000000	0.000000	0.000000	0.000000	0.000000	0.000000	0.000000	0.000000	0.000000	0.000000	0.000000	0.000000	0.000000	0.000000	0.000000	0.000000	0.000000	0.000000	11.414988	576.161894	-81.602280	0.194675	0.000000	-1.073108	-0.000000	5.999142	0.000000	-10.970432	466.228822	76.476152	0.220578	0.000000	-1.400889	-0.000000	-6.449362	-0.000000
5.962000	0.000000	0.000000	0.000000	0.000000	0.000000	0.000000	0.000000	0.000000	0.000000	0.000000	0.000000	0.000000	0.000000	0.000000	0.000000	0.000000	0.000000	0.000000	0.000000	0.000000	0.000000	0.000000	0.000000	0.000000	0.000000	0.000000	0.000000	11.410791	576.092297	-81.604486	0.194692	0.000000	-1.073101	-0.000000	5.997414	0.000000	-10.981217	466.333402	76.480045	0.220586	0.000000	-1.400883	-0.000000	-6.448835	-0.000000
5.962500	0.000000	0.000000	0.000000	0.000000	0.000000	0.000000	0.000000	0.000000	0.000000	0.000000	0.000000	0.000000	0.000000	0.000000	0.000000	0.000000	0.000000	0.000000	0.000000	0.000000	0.000000	0.000000	0.000000	0.000000	0.000000	0.000000	0.000000	11.405171	576.021338	-81.606839	0.194710	0.000000	-1.073095	-0.000000	5.995653	0.000000	-10.991926	466.439907	76.484514	0.220593	0.000000	-1.400876	-0.000000	-6.448293	-0.000000
5.963000	0.000000	0.000000	0.000000	0.000000	0.000000	0.000000	0.000000	0.000000	0.000000	0.000000	0.000000	0.000000	0.000000	0.000000	0.000000	0.000000	0.000000	0.000000	0.000000	0.000000	0.000000	0.000000	0.000000	0.000000	0.000000	0.000000	0.000000	11.398101	575.949012	-81.609333	0.194727	0.000000	-1.073087	-0.000000	5.993859	0.000000	-11.002574	466.548260	76.489539	0.220600	0.000000	-1.400869	-0.000000	-6.447737	-0.000000
5.963500	0.000000	0.000000	0.000000	0.000000	0.000000	0.000000	0.000000	0.000000	0.000000	0.000000	0.000000	0.000000	0.000000	0.000000	0.000000	0.000000	0.000000	0.000000	0.000000	0.000000	0.000000	0.000000	0.000000	0.000000	0.000000	0.000000	0.000000	11.389554	575.875317	-81.611962	0.194745	0.000000	-1.073080	-0.000000	5.992029	0.000000	-11.013176	466.658380	76.495094	0.220607	0.000000	-1.400861	-0.000000	-6.447166	-0.000000
5.964000	0.000000	0.000000	0.000000	0.000000	0.000000	0.000000	0.000000	0.000000	0.000000	0.000000	0.000000	0.000000	0.000000	0.000000	0.000000	0.000000	0.000000	0.000000	0.000000	0.000000	0.000000	0.000000	0.000000	0.000000	0.000000	0.000000	0.000000	11.379514	575.800255	-81.614717	0.194763	0.000000	-1.073072	-0.000000	5.990160	0.000000	-11.023750	466.770190	76.501151	0.220613	0.000000	-1.400853	-0.000000	-6.446578	-0.000000
5.964500	0.000000	0.000000	0.000000	0.000000	0.000000	0.000000	0.000000	0.000000	0.000000	0.000000	0.000000	0.000000	0.000000	0.000000	0.000000	0.000000	0.000000	0.000000	0.000000	0.000000	0.000000	0.000000	0.000000	0.000000	0.000000	0.000000	0.000000	11.367973	575.723828	-81.617588	0.194781	0.000000	-1.073063	-0.000000	5.988250	0.000000	-11.034311	466.883623	76.507679	0.220618	0.000000	-1.400845	-0.000000	-6.445971	-0.000000
5.965000	0.000000	0.000000	0.000000	0.000000	0.000000	0.000000	0.000000	0.000000	0.000000	0.000000	0.000000	0.000000	0.000000	0.000000	0.000000	0.000000	0.000000	0.000000	0.000000	0.000000	0.000000	0.000000	0.000000	0.000000	0.000000	0.000000	0.000000	11.354939	575.646040	-81.620562	0.194799	0.000000	-1.073055	-0.000000	5.986298	0.000000	-11.044866	466.998623	76.514644	0.220623	0.000000	-1.400836	-0.000000	-6.445343	-0.000000
5.965500	0.000000	0.000000	0.000000	0.000000	0.000000	0.000000	0.000000	0.000000	0.000000	0.000000	0.000000	0.000000	0.000000	0.000000	0.000000	0.000000	0.000000	0.000000	0.000000	0.000000	0.000000	0.000000	0.000000	0.000000	0.000000	0.000000	0.000000	11.340430	575.566897	-81.623631	0.194817	0.000000	-1.073046	-0.000000	5.984304	0.000000	-11.055424	467.115142	76.522018	0.220628	0.000000	-1.400827	-0.000000	-6.444688	-0.000000
5.966000	0.000000	0.000000	0.000000	0.000000	0.000000	0.000000	0.000000	0.000000	0.000000	0.000000	0.000000	0.000000	0.000000	0.000000	0.000000	0.000000	0.000000	0.000000	0.000000	0.000000	0.000000	0.000000	0.000000	0.000000	0.000000	0.000000	0.000000	11.324477	575.486404	-81.626780	0.194835	0.000000	-1.073036	-0.000000	5.982269	0.000000	-11.065991	467.233127	76.529772	0.220632	0.000000	-1.400818	-0.000000	-6.444005	-0.000000
5.966500	0.000000	0.000000	0.000000	0.000000	0.000000	0.000000	0.000000	0.000000	0.000000	0.000000	0.000000	0.000000	0.000000	0.000000	0.000000	0.000000	0.000000	0.000000	0.000000	0.000000	0.000000	0.000000	0.000000	0.000000	0.000000	0.000000	0.000000	11.307117	575.404557	-81.629989	0.194853	0.000000	-1.073027	-0.000000	5.980197	0.000000	-11.076574	467.352529	76.537879	0.220636	0.000000	-1.400808	-0.000000	-6.443289	-0.000000
5.967000	0.000000	0.000000	0.000000	0.000000	0.000000	0.000000	0.000000	0.000000	0.000000	0.000000	0.000000	0.000000	0.000000	0.000000	0.000000	0.000000	0.000000	0.000000	0.000000	0.000000	0.000000	0.000000	0.000000	0.000000	0.000000	0.000000	0.000000	11.288394	575.321343	-81.633233	0.194872	0.000000	-1.073017	-0.000000	5.978091	0.000000	-11.087183	467.473311	76.546318	0.220639	0.000000	-1.400798	-0.000000	-6.442538	-0.000000
5.967500	0.000000	0.000000	0.000000	0.000000	0.000000	0.000000	0.000000	0.000000	0.000000	0.000000	0.000000	0.000000	0.000000	0.000000	0.000000	0.000000	0.000000	0.000000	0.000000	0.000000	0.000000	0.000000	0.000000	0.000000	0.000000	0.000000	0.000000	11.268352	575.236738	-81.636482	0.194890	0.000000	-1.073007	-0.000000	5.975955	0.000000	-11.097825	467.595443	76.555072	0.220642	0.000000	-1.400788	-0.000000	-6.441749	-0.000000
5.968000	0.000000	0.000000	0.000000	0.000000	0.000000	0.000000	0.000000	0.000000	0.000000	0.000000	0.000000	0.000000	0.000000	0.000000	0.000000	0.000000	0.000000	0.000000	0.000000	0.000000	0.000000	0.000000	0.000000	0.000000	0.000000	0.000000	0.000000	11.247031	575.150715	-81.639710	0.194909	0.000000	-1.072996	-0.000000	5.973793	0.000000	-11.108504	467.718894	76.564125	0.220644	0.000000	-1.400778	-0.000000	-6.440923	-0.000000
5.968500	0.000000	0.000000	0.000000	0.000000	0.000000	0.000000	0.000000	0.000000	0.000000	0.000000	0.000000	0.000000	0.000000	0.000000	0.000000	0.000000	0.000000	0.000000	0.000000	0.000000	0.000000	0.000000	0.000000	0.000000	0.000000	0.000000	0.000000	11.224472	575.063241	-81.642890	0.194927	0.000000	-1.072985	-0.000000	5.971610	0.000000	-11.119217	467.843629	76.573462	0.220646	0.000000	-1.400767	-0.000000	-6.440061	-0.000000
5.969000	0.000000	0.000000	0.000000	0.000000	0.000000	0.000000	0.000000	0.000000	0.000000	0.000000	0.000000	0.000000	0.000000	0.000000	0.000000	0.000000	0.000000	0.000000	0.000000	0.000000	0.000000	0.000000	0.000000	0.000000	0.000000	0.000000	0.000000	11.200717	574.974266	-81.645997	0.194946	0.000000	-1.072974	-0.000000	5.969410	0.000000	-11.129952	467.969611	76.583060	0.220647	0.000000	-1.400756	-0.000000	-6.439169	-0.000000
5.969500	0.000000	0.000000	0.000000	0.000000	0.000000	0.000000	0.000000	0.000000	0.000000	0.000000	0.000000	0.000000	0.000000	0.000000	0.000000	0.000000	0.000000	0.000000	0.000000	0.000000	0.000000	0.000000	0.000000	0.000000	0.000000	0.000000	0.000000	11.175809	574.883731	-81.649007	0.194965	0.000000	-1.072963	-0.000000	5.967195	0.000000	-11.140687	468.096798	76.592893	0.220648	0.000000	-1.400745	-0.000000	-6.438250	-0.000000
5.970000	0.000000	0.000000	0.000000	0.000000	0.000000	0.000000	0.000000	0.000000	0.000000	0.000000	0.000000	0.000000	0.000000	0.000000	0.000000	0.000000	0.000000	0.000000	0.000000	0.000000	0.000000	0.000000	0.000000	0.000000	0.000000	0.000000	0.000000	11.149793	574.791576	-81.651888	0.194984	0.000000	-1.072952	-0.000000	5.964968	0.000000	-11.151391	468.225146	76.602923	0.220648	0.000000	-1.400734	-0.000000	-6.437311	-0.000000
5.970500	0.000000	0.000000	0.000000	0.000000	0.000000	0.000000	0.000000	0.000000	0.000000	0.000000	0.000000	0.000000	0.000000	0.000000	0.000000	0.000000	0.000000	0.000000	0.000000	0.000000	0.000000	0.000000	0.000000	0.000000	0.000000	0.000000	0.000000	11.122719	574.697752	-81.654613	0.195003	0.000000	-1.072940	-0.000000	5.962732	0.000000	-11.162030	468.354601	76.613108	0.220648	0.000000	-1.400723	-0.000000	-6.436359	-0.000000
5.971000	0.000000	0.000000	0.000000	0.000000	0.000000	0.000000	0.000000	0.000000	0.000000	0.000000	0.000000	0.000000	0.000000	0.000000	0.000000	0.000000	0.000000	0.000000	0.000000	0.000000	0.000000	0.000000	0.000000	0.000000	0.000000	0.000000	0.000000	11.094637	574.602229	-81.657153	0.195022	0.000000	-1.072928	-0.000000	5.960490	0.000000	-11.172572	468.485108	76.623399	0.220648	0.000000	-1.400711	-0.000000	-6.435399	-0.000000
